<svg width="156" height="70" viewBox="0 0 156 70" fill="none" xmlns="http://www.w3.org/2000/svg">
<g clip-path="url(#clip0_205_299)">
<path d="M62.51 40.09H62.5C63.94 41.29 105.27 54.31 120.39 51.75C136.44 49.03 142.92 41.44 152.76 26.89C153.28 26.13 153.81 25.35 154.29 24.54L62.51 40.09Z" fill="#1CA685"/>
<path d="M115.92 53.07C98.4299 53.07 63.6899 42.39 61.8599 40.88C61.4499 40.54 61.3699 39.94 61.6899 39.51C61.8399 39.3 62.0799 39.14 62.3399 39.1L154.12 23.55C154.5 23.49 154.89 23.65 155.11 23.97C155.33 24.29 155.34 24.71 155.14 25.05C154.65 25.88 154.11 26.66 153.59 27.42C143.35 42.56 136.76 49.99 120.54 52.73C119.2 52.96 117.64 53.06 115.91 53.06L115.92 53.07ZM66.1399 40.49C76.1399 43.89 107.66 52.9 120.21 50.77C135.67 48.15 142.02 40.97 151.92 26.33C152.02 26.19 152.11 26.05 152.21 25.91L66.1399 40.49Z" fill="#0C161C"/>
<path d="M2 11.16L88.89 44.58C88.23 42.84 59.34 10.55 45.01 5.02999C29.84 -0.810009 20.39 2.40999 4.52 9.91999C3.68 10.31 2.83 10.71 2 11.17V11.16Z" fill="#008682"/>
<path d="M88.8899 45.58C88.7699 45.58 88.6499 45.56 88.5299 45.51L1.63991 12.1C1.27991 11.96 1.02991 11.62 0.99991 11.23C0.96991 10.84 1.17991 10.47 1.51991 10.29C2.42991 9.79002 3.32991 9.37002 4.09991 9.01002C20.5799 1.22002 30.0299 -1.80998 45.3799 4.10002C60.0399 9.75002 88.9699 41.95 89.8299 44.23C89.9699 44.6 89.8799 45.01 89.5999 45.29C89.4099 45.48 89.1499 45.58 88.8899 45.58ZM4.46991 11.04L85.9099 42.36C78.9699 34.28 56.4199 10.5 44.6599 5.97002C30.0299 0.340019 20.9099 3.28002 4.93991 10.82C4.78991 10.89 4.62991 10.96 4.46991 11.04Z" fill="#0C161C"/>
<path d="M2 11.1599C2.64 12.8899 3.35 14.6299 4.15 16.3199C11.21 31.2899 15.51 39.0399 29.82 44.5299C45.02 50.3799 88.09 45.0499 88.9 44.5899L2 11.1599Z" fill="#1CA685"/>
<path d="M53.2199 48.25C43.8499 48.25 34.8799 47.5499 29.4499 45.4599C14.6699 39.7899 10.2999 31.7099 3.2399 16.7499C2.4799 15.1199 1.7399 13.3599 1.0599 11.5099C0.919897 11.1399 1.0199 10.7299 1.2999 10.4499C1.5799 10.1799 1.9999 10.0899 2.3599 10.2299L89.2499 43.65C89.6099 43.79 89.8599 44.1199 89.8899 44.5099C89.9199 44.8999 89.7199 45.26 89.3899 45.45C88.5199 45.94 70.2199 48.25 53.2199 48.25ZM3.7499 12.9099C4.1699 13.9499 4.6099 14.9499 5.0499 15.8999C11.8799 30.3899 16.0999 38.1999 30.1699 43.5999C42.6899 48.4199 74.3299 45.4799 84.9999 44.1699L3.7499 12.9099Z" fill="#0C161C"/>
<path d="M62.5098 40.09L154.29 24.54C152.85 23.38 151.35 22.25 149.8 21.21C136.08 11.92 128.46 7.45 113.34 10.01C97.3298 12.73 63.1998 39.12 62.5098 40.09Z" fill="#008682"/>
<path d="M62.5101 41.09C62.1701 41.09 61.8501 40.92 61.6601 40.62C61.4401 40.28 61.4601 39.84 61.6901 39.51C62.5501 38.29 96.9101 11.79 113.17 9.03005C128.79 6.39005 136.66 11.1 150.36 20.38C151.77 21.32 153.27 22.43 154.92 23.76C155.23 24.01 155.36 24.41 155.26 24.79C155.16 25.17 154.85 25.46 154.46 25.52L62.6801 41.07C62.6201 41.07 62.5701 41.0801 62.5101 41.0801V41.09ZM121.05 10.31C118.73 10.31 116.24 10.53 113.51 11C100.36 13.24 74.6401 31.88 66.0901 38.47L151.9 23.93C150.98 23.23 150.1 22.61 149.25 22.04C138.42 14.71 131.36 10.31 121.05 10.31Z" fill="#0C161C"/>
<path d="M92.1111 68.85C101.24 68.85 108.641 61.4493 108.641 52.32C108.641 43.1908 101.24 35.79 92.1111 35.79C82.9818 35.79 75.5811 43.1908 75.5811 52.32C75.5811 61.4493 82.9818 68.85 92.1111 68.85Z" fill="#E05454"/>
<path d="M92.1208 69.85C91.8708 69.85 91.6208 69.85 91.3608 69.83C81.7008 69.41 74.1808 61.22 74.6008 51.56C74.8008 46.88 76.8108 42.56 80.2608 39.4C83.7108 36.23 88.1808 34.61 92.8608 34.8C102.521 35.22 110.041 43.41 109.621 53.07C109.221 62.47 101.441 69.85 92.1108 69.85H92.1208ZM92.1008 36.79C88.2008 36.79 84.5008 38.23 81.6208 40.88C78.5608 43.68 76.7808 47.51 76.6008 51.66C76.2308 60.22 82.8908 67.47 91.4508 67.84C100.011 68.21 107.261 61.55 107.631 52.99C108.001 44.43 101.341 37.18 92.7808 36.81C92.5508 36.81 92.3208 36.8 92.1008 36.8V36.79Z" fill="#0C161C"/>
<path d="M59.0808 67.43C68.2101 67.43 75.6108 60.0293 75.6108 50.9C75.6108 41.7707 68.2101 34.37 59.0808 34.37C49.9515 34.37 42.5508 41.7707 42.5508 50.9C42.5508 60.0293 49.9515 67.43 59.0808 67.43Z" fill="#E05454"/>
<path d="M59.0905 68.43C58.8405 68.43 58.5805 68.43 58.3305 68.41C48.6705 67.99 41.1505 59.8 41.5705 50.14C41.9805 40.48 50.1905 32.99 59.8405 33.38C69.5005 33.8 77.0205 41.99 76.6005 51.65C76.2005 61.05 68.4205 68.43 59.1005 68.43H59.0905ZM43.5705 50.23C43.2005 58.79 49.8605 66.04 58.4205 66.41C66.9905 66.78 74.2305 60.12 74.6005 51.56C74.9705 43 68.3105 35.75 59.7505 35.38C51.2005 35.01 43.9405 41.68 43.5705 50.23Z" fill="#0C161C"/>
<path d="M76.5407 46.1201C85.67 46.1201 93.0707 38.7193 93.0707 29.5901C93.0707 20.4608 85.67 13.0601 76.5407 13.0601C67.4115 13.0601 60.0107 20.4608 60.0107 29.5901C60.0107 38.7193 67.4115 46.1201 76.5407 46.1201Z" fill="#E05454"/>
<path d="M76.5504 47.12C76.3004 47.12 76.0404 47.12 75.7904 47.1C66.1304 46.68 58.6104 38.49 59.0304 28.84C59.4404 19.18 67.6304 11.65 77.3004 12.08C81.9804 12.28 86.3004 14.29 89.4604 17.74C92.6304 21.19 94.2604 25.67 94.0604 30.34C93.6604 39.74 85.8804 47.12 76.5604 47.12H76.5504ZM61.0304 28.92C60.6604 37.47 67.3204 44.73 75.8804 45.1C84.4404 45.48 91.6904 38.81 92.0604 30.25C92.2404 26.11 90.7904 22.14 87.9904 19.08C85.1904 16.02 81.3604 14.24 77.2104 14.07C68.6504 13.7 61.4004 20.36 61.0304 28.92Z" fill="#0C161C"/>
</g>
<defs>
<clipPath id="clip0_205_299">
<rect width="156" height="70" fill="white"/>
</clipPath>
</defs>
</svg>
